<?xml version="1.0" encoding="utf-8" standalone="no"?>
<!DOCTYPE svg PUBLIC "-//W3C//DTD SVG 1.1//EN"
  "http://www.w3.org/Graphics/SVG/1.1/DTD/svg11.dtd">
<!-- Created with matplotlib (https://matplotlib.org/) -->
<svg height="288pt" version="1.1" viewBox="0 0 432 288" width="432pt" xmlns="http://www.w3.org/2000/svg" xmlns:xlink="http://www.w3.org/1999/xlink">
 <metadata>
  <rdf:RDF xmlns:cc="http://creativecommons.org/ns#" xmlns:dc="http://purl.org/dc/elements/1.1/" xmlns:rdf="http://www.w3.org/1999/02/22-rdf-syntax-ns#">
   <cc:Work>
    <dc:type rdf:resource="http://purl.org/dc/dcmitype/StillImage"/>
    <dc:date>2021-05-18T10:42:56.935816</dc:date>
    <dc:format>image/svg+xml</dc:format>
    <dc:creator>
     <cc:Agent>
      <dc:title>Matplotlib v3.3.2, https://matplotlib.org/</dc:title>
     </cc:Agent>
    </dc:creator>
   </cc:Work>
  </rdf:RDF>
 </metadata>
 <defs>
  <style type="text/css">*{stroke-linecap:butt;stroke-linejoin:round;}</style>
 </defs>
 <g id="figure_1">
  <g id="patch_1">
   <path d="M 0 288 
L 432 288 
L 432 0 
L 0 0 
z
" style="fill:none;"/>
  </g>
  <g id="patch_2">
   <path d="M 112.68 252 
L 330.12 252 
L 330.12 34.56 
L 112.68 34.56 
z
" style="fill:#ffffff;"/>
  </g>
  <g id="pane3d_1">
   <g id="patch_3">
    <path d="M 129.09822 198.386264 
L 200.904009 138.197228 
L 199.90584 51.393878 
L 124.663773 106.302111 
" style="fill:#f2f2f2;opacity:0.5;stroke:#f2f2f2;stroke-linejoin:miter;"/>
   </g>
  </g>
  <g id="pane3d_2">
   <g id="patch_4">
    <path d="M 200.904009 138.197228 
L 316.12668 171.68791 
L 320.238571 81.894718 
L 199.90584 51.393878 
" style="fill:#e6e6e6;opacity:0.5;stroke:#e6e6e6;stroke-linejoin:miter;"/>
   </g>
  </g>
  <g id="pane3d_3">
   <g id="patch_5">
    <path d="M 129.09822 198.386264 
L 251.239879 238.27773 
L 316.12668 171.68791 
L 200.904009 138.197228 
" style="fill:#ececec;opacity:0.5;stroke:#ececec;stroke-linejoin:miter;"/>
   </g>
  </g>
  <g id="axis3d_1">
   <g id="line2d_1">
    <path d="M 129.09822 198.386264 
L 251.239879 238.27773 
" style="fill:none;stroke:#000000;stroke-linecap:square;stroke-width:0.8;"/>
   </g>
   <g id="text_1">
    <!-- N -->
    <g transform="translate(168.496618 255.903264)scale(0.1 -0.1)">
     <defs>
      <path d="M 9.8125 72.90625 
L 23.09375 72.90625 
L 55.421875 11.921875 
L 55.421875 72.90625 
L 64.984375 72.90625 
L 64.984375 0 
L 51.703125 0 
L 19.390625 60.984375 
L 19.390625 0 
L 9.8125 0 
z
" id="DejaVuSans-78"/>
     </defs>
     <use xlink:href="#DejaVuSans-78"/>
    </g>
   </g>
   <g id="Line3DCollection_1">
    <path d="M 136.444843 200.785672 
L 207.86328 140.220013 
L 207.159347 53.232431 
" style="fill:none;stroke:#b0b0b0;stroke-width:0.8;"/>
    <path d="M 162.192278 209.194784 
L 232.223971 147.300704 
L 232.564567 59.671913 
" style="fill:none;stroke:#b0b0b0;stroke-width:0.8;"/>
    <path d="M 188.532394 217.797466 
L 257.098495 154.530747 
L 258.529052 66.253153 
" style="fill:none;stroke:#b0b0b0;stroke-width:0.8;"/>
    <path d="M 215.485891 226.600478 
L 282.503283 161.914916 
L 285.071475 72.980884 
" style="fill:none;stroke:#b0b0b0;stroke-width:0.8;"/>
    <path d="M 243.074449 235.610901 
L 308.455474 169.458193 
L 312.21135 79.860051 
" style="fill:none;stroke:#b0b0b0;stroke-width:0.8;"/>
   </g>
   <g id="xtick_1">
    <g id="line2d_2">
     <path d="M 137.066749 200.25827 
L 135.198361 201.842737 
" style="fill:none;stroke:#000000;stroke-linecap:square;stroke-width:0.8;"/>
    </g>
    <g id="text_2">
     <!-- 0 -->
     <g transform="translate(125.728212 224.107473)scale(0.1 -0.1)">
      <defs>
       <path d="M 31.78125 66.40625 
Q 24.171875 66.40625 20.328125 58.90625 
Q 16.5 51.421875 16.5 36.375 
Q 16.5 21.390625 20.328125 13.890625 
Q 24.171875 6.390625 31.78125 6.390625 
Q 39.453125 6.390625 43.28125 13.890625 
Q 47.125 21.390625 47.125 36.375 
Q 47.125 51.421875 43.28125 58.90625 
Q 39.453125 66.40625 31.78125 66.40625 
z
M 31.78125 74.21875 
Q 44.046875 74.21875 50.515625 64.515625 
Q 56.984375 54.828125 56.984375 36.375 
Q 56.984375 17.96875 50.515625 8.265625 
Q 44.046875 -1.421875 31.78125 -1.421875 
Q 19.53125 -1.421875 13.0625 8.265625 
Q 6.59375 17.96875 6.59375 36.375 
Q 6.59375 54.828125 13.0625 64.515625 
Q 19.53125 74.21875 31.78125 74.21875 
z
" id="DejaVuSans-48"/>
      </defs>
      <use xlink:href="#DejaVuSans-48"/>
     </g>
    </g>
   </g>
   <g id="xtick_2">
    <g id="line2d_3">
     <path d="M 162.802673 208.655317 
L 160.96884 210.27606 
" style="fill:none;stroke:#000000;stroke-linecap:square;stroke-width:0.8;"/>
    </g>
    <g id="text_3">
     <!-- 5000 -->
     <g transform="translate(141.96433 232.735042)scale(0.1 -0.1)">
      <defs>
       <path d="M 10.796875 72.90625 
L 49.515625 72.90625 
L 49.515625 64.59375 
L 19.828125 64.59375 
L 19.828125 46.734375 
Q 21.96875 47.46875 24.109375 47.828125 
Q 26.265625 48.1875 28.421875 48.1875 
Q 40.625 48.1875 47.75 41.5 
Q 54.890625 34.8125 54.890625 23.390625 
Q 54.890625 11.625 47.5625 5.09375 
Q 40.234375 -1.421875 26.90625 -1.421875 
Q 22.3125 -1.421875 17.546875 -0.640625 
Q 12.796875 0.140625 7.71875 1.703125 
L 7.71875 11.625 
Q 12.109375 9.234375 16.796875 8.0625 
Q 21.484375 6.890625 26.703125 6.890625 
Q 35.15625 6.890625 40.078125 11.328125 
Q 45.015625 15.765625 45.015625 23.390625 
Q 45.015625 31 40.078125 35.4375 
Q 35.15625 39.890625 26.703125 39.890625 
Q 22.75 39.890625 18.8125 39.015625 
Q 14.890625 38.140625 10.796875 36.28125 
z
" id="DejaVuSans-53"/>
      </defs>
      <use xlink:href="#DejaVuSans-53"/>
      <use x="63.623047" xlink:href="#DejaVuSans-48"/>
      <use x="127.246094" xlink:href="#DejaVuSans-48"/>
      <use x="190.869141" xlink:href="#DejaVuSans-48"/>
     </g>
    </g>
   </g>
   <g id="xtick_3">
    <g id="line2d_4">
     <path d="M 189.130579 217.245513 
L 187.333397 218.903793 
" style="fill:none;stroke:#000000;stroke-linecap:square;stroke-width:0.8;"/>
    </g>
    <g id="text_4">
     <!-- 10000 -->
     <g transform="translate(165.159138 241.562135)scale(0.1 -0.1)">
      <defs>
       <path d="M 12.40625 8.296875 
L 28.515625 8.296875 
L 28.515625 63.921875 
L 10.984375 60.40625 
L 10.984375 69.390625 
L 28.421875 72.90625 
L 38.28125 72.90625 
L 38.28125 8.296875 
L 54.390625 8.296875 
L 54.390625 0 
L 12.40625 0 
z
" id="DejaVuSans-49"/>
      </defs>
      <use xlink:href="#DejaVuSans-49"/>
      <use x="63.623047" xlink:href="#DejaVuSans-48"/>
      <use x="127.246094" xlink:href="#DejaVuSans-48"/>
      <use x="190.869141" xlink:href="#DejaVuSans-48"/>
      <use x="254.492188" xlink:href="#DejaVuSans-48"/>
     </g>
    </g>
   </g>
   <g id="xtick_4">
    <g id="line2d_5">
     <path d="M 216.07113 226.035602 
L 214.312815 227.732738 
" style="fill:none;stroke:#000000;stroke-linecap:square;stroke-width:0.8;"/>
    </g>
    <g id="text_5">
     <!-- 15000 -->
     <g transform="translate(192.152311 250.595753)scale(0.1 -0.1)">
      <use xlink:href="#DejaVuSans-49"/>
      <use x="63.623047" xlink:href="#DejaVuSans-53"/>
      <use x="127.246094" xlink:href="#DejaVuSans-48"/>
      <use x="190.869141" xlink:href="#DejaVuSans-48"/>
      <use x="254.492188" xlink:href="#DejaVuSans-48"/>
     </g>
    </g>
   </g>
   <g id="xtick_5">
    <g id="line2d_6">
     <path d="M 243.645962 235.032643 
L 241.928856 236.770015 
" style="fill:none;stroke:#000000;stroke-linecap:square;stroke-width:0.8;"/>
    </g>
    <g id="text_6">
     <!-- 20000 -->
     <g transform="translate(219.784511 259.84323)scale(0.1 -0.1)">
      <defs>
       <path d="M 19.1875 8.296875 
L 53.609375 8.296875 
L 53.609375 0 
L 7.328125 0 
L 7.328125 8.296875 
Q 12.9375 14.109375 22.625 23.890625 
Q 32.328125 33.6875 34.8125 36.53125 
Q 39.546875 41.84375 41.421875 45.53125 
Q 43.3125 49.21875 43.3125 52.78125 
Q 43.3125 58.59375 39.234375 62.25 
Q 35.15625 65.921875 28.609375 65.921875 
Q 23.96875 65.921875 18.8125 64.3125 
Q 13.671875 62.703125 7.8125 59.421875 
L 7.8125 69.390625 
Q 13.765625 71.78125 18.9375 73 
Q 24.125 74.21875 28.421875 74.21875 
Q 39.75 74.21875 46.484375 68.546875 
Q 53.21875 62.890625 53.21875 53.421875 
Q 53.21875 48.921875 51.53125 44.890625 
Q 49.859375 40.875 45.40625 35.40625 
Q 44.1875 33.984375 37.640625 27.21875 
Q 31.109375 20.453125 19.1875 8.296875 
z
" id="DejaVuSans-50"/>
      </defs>
      <use xlink:href="#DejaVuSans-50"/>
      <use x="63.623047" xlink:href="#DejaVuSans-48"/>
      <use x="127.246094" xlink:href="#DejaVuSans-48"/>
      <use x="190.869141" xlink:href="#DejaVuSans-48"/>
      <use x="254.492188" xlink:href="#DejaVuSans-48"/>
     </g>
    </g>
   </g>
  </g>
  <g id="axis3d_2">
   <g id="line2d_7">
    <path d="M 316.12668 171.68791 
L 251.239879 238.27773 
" style="fill:none;stroke:#000000;stroke-linecap:square;stroke-width:0.8;"/>
   </g>
   <g id="text_7">
    <!-- W -->
    <g transform="translate(307.169707 234.270788)scale(0.1 -0.1)">
     <defs>
      <path d="M 3.328125 72.90625 
L 13.28125 72.90625 
L 28.609375 11.28125 
L 43.890625 72.90625 
L 54.984375 72.90625 
L 70.3125 11.28125 
L 85.59375 72.90625 
L 95.609375 72.90625 
L 77.296875 0 
L 64.890625 0 
L 49.515625 63.28125 
L 33.984375 0 
L 21.578125 0 
z
" id="DejaVuSans-87"/>
     </defs>
     <use xlink:href="#DejaVuSans-87"/>
    </g>
   </g>
   <g id="Line3DCollection_2">
    <path d="M 129.83146 102.530968 
L 134.012489 194.267026 
L 255.698923 233.701654 
" style="fill:none;stroke:#b0b0b0;stroke-width:0.8;"/>
    <path d="M 147.22464 89.838218 
L 150.571542 180.386899 
L 270.704202 218.302547 
" style="fill:none;stroke:#b0b0b0;stroke-width:0.8;"/>
    <path d="M 163.942145 77.638544 
L 166.514724 167.023008 
L 285.122528 203.505797 
" style="fill:none;stroke:#b0b0b0;stroke-width:0.8;"/>
    <path d="M 180.022596 65.903764 
L 181.875766 154.147078 
L 298.987681 189.276739 
" style="fill:none;stroke:#b0b0b0;stroke-width:0.8;"/>
    <path d="M 195.501727 54.607799 
L 196.68598 141.732864 
L 312.330896 175.583317 
" style="fill:none;stroke:#b0b0b0;stroke-width:0.8;"/>
   </g>
   <g id="xtick_6">
    <g id="line2d_8">
     <path d="M 254.673466 233.369336 
L 257.75249 234.367148 
" style="fill:none;stroke:#000000;stroke-linecap:square;stroke-width:0.8;"/>
    </g>
    <g id="text_8">
     <!-- 0 -->
     <g transform="translate(265.400536 254.725753)scale(0.1 -0.1)">
      <use xlink:href="#DejaVuSans-48"/>
     </g>
    </g>
   </g>
   <g id="xtick_7">
    <g id="line2d_9">
     <path d="M 269.692861 217.983352 
L 272.729446 218.941744 
" style="fill:none;stroke:#000000;stroke-linecap:square;stroke-width:0.8;"/>
    </g>
    <g id="text_9">
     <!-- 5000 -->
     <g transform="translate(270.615667 239.047573)scale(0.1 -0.1)">
      <use xlink:href="#DejaVuSans-53"/>
      <use x="63.623047" xlink:href="#DejaVuSans-48"/>
      <use x="127.246094" xlink:href="#DejaVuSans-48"/>
      <use x="190.869141" xlink:href="#DejaVuSans-48"/>
     </g>
    </g>
   </g>
   <g id="xtick_8">
    <g id="line2d_10">
     <path d="M 284.124995 203.198964 
L 287.120073 204.120225 
" style="fill:none;stroke:#000000;stroke-linecap:square;stroke-width:0.8;"/>
    </g>
    <g id="text_10">
     <!-- 10000 -->
     <g transform="translate(281.615577 223.983098)scale(0.1 -0.1)">
      <use xlink:href="#DejaVuSans-49"/>
      <use x="63.623047" xlink:href="#DejaVuSans-48"/>
      <use x="127.246094" xlink:href="#DejaVuSans-48"/>
      <use x="190.869141" xlink:href="#DejaVuSans-48"/>
      <use x="254.492188" xlink:href="#DejaVuSans-48"/>
     </g>
    </g>
   </g>
   <g id="xtick_9">
    <g id="line2d_11">
     <path d="M 298.003651 188.981562 
L 300.958141 189.867811 
" style="fill:none;stroke:#000000;stroke-linecap:square;stroke-width:0.8;"/>
    </g>
    <g id="text_11">
     <!-- 15000 -->
     <g transform="translate(295.252287 209.496986)scale(0.1 -0.1)">
      <use xlink:href="#DejaVuSans-49"/>
      <use x="63.623047" xlink:href="#DejaVuSans-53"/>
      <use x="127.246094" xlink:href="#DejaVuSans-48"/>
      <use x="190.869141" xlink:href="#DejaVuSans-48"/>
      <use x="254.492188" xlink:href="#DejaVuSans-48"/>
     </g>
    </g>
   </g>
   <g id="xtick_10">
    <g id="line2d_12">
     <path d="M 311.360068 175.299146 
L 314.274875 176.15234 
" style="fill:none;stroke:#000000;stroke-linecap:square;stroke-width:0.8;"/>
    </g>
    <g id="text_12">
     <!-- 20000 -->
     <g transform="translate(308.37531 195.556556)scale(0.1 -0.1)">
      <use xlink:href="#DejaVuSans-50"/>
      <use x="63.623047" xlink:href="#DejaVuSans-48"/>
      <use x="127.246094" xlink:href="#DejaVuSans-48"/>
      <use x="190.869141" xlink:href="#DejaVuSans-48"/>
      <use x="254.492188" xlink:href="#DejaVuSans-48"/>
     </g>
    </g>
   </g>
  </g>
  <g id="axis3d_3">
   <g id="line2d_13">
    <path d="M 316.12668 171.68791 
L 320.238571 81.894718 
" style="fill:none;stroke:#000000;stroke-linecap:square;stroke-width:0.8;"/>
   </g>
   <g id="text_13">
    <!-- time [s] -->
    <g transform="translate(360.322925 141.870937)rotate(-87.378092)scale(0.1 -0.1)">
     <defs>
      <path d="M 18.3125 70.21875 
L 18.3125 54.6875 
L 36.8125 54.6875 
L 36.8125 47.703125 
L 18.3125 47.703125 
L 18.3125 18.015625 
Q 18.3125 11.328125 20.140625 9.421875 
Q 21.96875 7.515625 27.59375 7.515625 
L 36.8125 7.515625 
L 36.8125 0 
L 27.59375 0 
Q 17.1875 0 13.234375 3.875 
Q 9.28125 7.765625 9.28125 18.015625 
L 9.28125 47.703125 
L 2.6875 47.703125 
L 2.6875 54.6875 
L 9.28125 54.6875 
L 9.28125 70.21875 
z
" id="DejaVuSans-116"/>
      <path d="M 9.421875 54.6875 
L 18.40625 54.6875 
L 18.40625 0 
L 9.421875 0 
z
M 9.421875 75.984375 
L 18.40625 75.984375 
L 18.40625 64.59375 
L 9.421875 64.59375 
z
" id="DejaVuSans-105"/>
      <path d="M 52 44.1875 
Q 55.375 50.25 60.0625 53.125 
Q 64.75 56 71.09375 56 
Q 79.640625 56 84.28125 50.015625 
Q 88.921875 44.046875 88.921875 33.015625 
L 88.921875 0 
L 79.890625 0 
L 79.890625 32.71875 
Q 79.890625 40.578125 77.09375 44.375 
Q 74.3125 48.1875 68.609375 48.1875 
Q 61.625 48.1875 57.5625 43.546875 
Q 53.515625 38.921875 53.515625 30.90625 
L 53.515625 0 
L 44.484375 0 
L 44.484375 32.71875 
Q 44.484375 40.625 41.703125 44.40625 
Q 38.921875 48.1875 33.109375 48.1875 
Q 26.21875 48.1875 22.15625 43.53125 
Q 18.109375 38.875 18.109375 30.90625 
L 18.109375 0 
L 9.078125 0 
L 9.078125 54.6875 
L 18.109375 54.6875 
L 18.109375 46.1875 
Q 21.1875 51.21875 25.484375 53.609375 
Q 29.78125 56 35.6875 56 
Q 41.65625 56 45.828125 52.96875 
Q 50 49.953125 52 44.1875 
z
" id="DejaVuSans-109"/>
      <path d="M 56.203125 29.59375 
L 56.203125 25.203125 
L 14.890625 25.203125 
Q 15.484375 15.921875 20.484375 11.0625 
Q 25.484375 6.203125 34.421875 6.203125 
Q 39.59375 6.203125 44.453125 7.46875 
Q 49.3125 8.734375 54.109375 11.28125 
L 54.109375 2.78125 
Q 49.265625 0.734375 44.1875 -0.34375 
Q 39.109375 -1.421875 33.890625 -1.421875 
Q 20.796875 -1.421875 13.15625 6.1875 
Q 5.515625 13.8125 5.515625 26.8125 
Q 5.515625 40.234375 12.765625 48.109375 
Q 20.015625 56 32.328125 56 
Q 43.359375 56 49.78125 48.890625 
Q 56.203125 41.796875 56.203125 29.59375 
z
M 47.21875 32.234375 
Q 47.125 39.59375 43.09375 43.984375 
Q 39.0625 48.390625 32.421875 48.390625 
Q 24.90625 48.390625 20.390625 44.140625 
Q 15.875 39.890625 15.1875 32.171875 
z
" id="DejaVuSans-101"/>
      <path id="DejaVuSans-32"/>
      <path d="M 8.59375 75.984375 
L 29.296875 75.984375 
L 29.296875 69 
L 17.578125 69 
L 17.578125 -6.203125 
L 29.296875 -6.203125 
L 29.296875 -13.1875 
L 8.59375 -13.1875 
z
" id="DejaVuSans-91"/>
      <path d="M 44.28125 53.078125 
L 44.28125 44.578125 
Q 40.484375 46.53125 36.375 47.5 
Q 32.28125 48.484375 27.875 48.484375 
Q 21.1875 48.484375 17.84375 46.4375 
Q 14.5 44.390625 14.5 40.28125 
Q 14.5 37.15625 16.890625 35.375 
Q 19.28125 33.59375 26.515625 31.984375 
L 29.59375 31.296875 
Q 39.15625 29.25 43.1875 25.515625 
Q 47.21875 21.78125 47.21875 15.09375 
Q 47.21875 7.46875 41.1875 3.015625 
Q 35.15625 -1.421875 24.609375 -1.421875 
Q 20.21875 -1.421875 15.453125 -0.5625 
Q 10.6875 0.296875 5.421875 2 
L 5.421875 11.28125 
Q 10.40625 8.6875 15.234375 7.390625 
Q 20.0625 6.109375 24.8125 6.109375 
Q 31.15625 6.109375 34.5625 8.28125 
Q 37.984375 10.453125 37.984375 14.40625 
Q 37.984375 18.0625 35.515625 20.015625 
Q 33.0625 21.96875 24.703125 23.78125 
L 21.578125 24.515625 
Q 13.234375 26.265625 9.515625 29.90625 
Q 5.8125 33.546875 5.8125 39.890625 
Q 5.8125 47.609375 11.28125 51.796875 
Q 16.75 56 26.8125 56 
Q 31.78125 56 36.171875 55.265625 
Q 40.578125 54.546875 44.28125 53.078125 
z
" id="DejaVuSans-115"/>
      <path d="M 30.421875 75.984375 
L 30.421875 -13.1875 
L 9.71875 -13.1875 
L 9.71875 -6.203125 
L 21.390625 -6.203125 
L 21.390625 69 
L 9.71875 69 
L 9.71875 75.984375 
z
" id="DejaVuSans-93"/>
     </defs>
     <use xlink:href="#DejaVuSans-116"/>
     <use x="39.208984" xlink:href="#DejaVuSans-105"/>
     <use x="66.992188" xlink:href="#DejaVuSans-109"/>
     <use x="164.404297" xlink:href="#DejaVuSans-101"/>
     <use x="225.927734" xlink:href="#DejaVuSans-32"/>
     <use x="257.714844" xlink:href="#DejaVuSans-91"/>
     <use x="296.728516" xlink:href="#DejaVuSans-115"/>
     <use x="348.828125" xlink:href="#DejaVuSans-93"/>
    </g>
   </g>
   <g id="Line3DCollection_3">
    <path d="M 316.205459 169.967571 
L 200.884845 136.530725 
L 129.013401 196.624949 
" style="fill:none;stroke:#b0b0b0;stroke-width:0.8;"/>
    <path d="M 317.180055 148.684888 
L 200.647898 115.925201 
L 127.963637 174.825923 
" style="fill:none;stroke:#b0b0b0;stroke-width:0.8;"/>
    <path d="M 318.175551 126.945796 
L 200.406115 94.899081 
L 126.890495 152.541427 
" style="fill:none;stroke:#b0b0b0;stroke-width:0.8;"/>
    <path d="M 319.192627 104.735457 
L 200.159345 73.439352 
L 125.793184 129.755064 
" style="fill:none;stroke:#b0b0b0;stroke-width:0.8;"/>
   </g>
   <g id="xtick_11">
    <g id="line2d_14">
     <path d="M 315.237563 169.686933 
L 318.143556 170.529516 
" style="fill:none;stroke:#000000;stroke-linecap:square;stroke-width:0.8;"/>
    </g>
    <g id="text_14">
     <!-- 0 -->
     <g transform="translate(331.275915 174.966846)scale(0.1 -0.1)">
      <use xlink:href="#DejaVuSans-48"/>
     </g>
    </g>
   </g>
   <g id="xtick_12">
    <g id="line2d_15">
     <path d="M 316.201504 148.409796 
L 319.139511 149.235733 
" style="fill:none;stroke:#000000;stroke-linecap:square;stroke-width:0.8;"/>
    </g>
    <g id="text_15">
     <!-- 2 -->
     <g transform="translate(332.439806 153.735624)scale(0.1 -0.1)">
      <use xlink:href="#DejaVuSans-50"/>
     </g>
    </g>
   </g>
   <g id="xtick_13">
    <g id="line2d_16">
     <path d="M 317.186109 126.676555 
L 320.156841 127.484933 
" style="fill:none;stroke:#000000;stroke-linecap:square;stroke-width:0.8;"/>
    </g>
    <g id="text_16">
     <!-- 4 -->
     <g transform="translate(333.628563 132.050805)scale(0.1 -0.1)">
      <defs>
       <path d="M 37.796875 64.3125 
L 12.890625 25.390625 
L 37.796875 25.390625 
z
M 35.203125 72.90625 
L 47.609375 72.90625 
L 47.609375 25.390625 
L 58.015625 25.390625 
L 58.015625 17.1875 
L 47.609375 17.1875 
L 47.609375 0 
L 37.796875 0 
L 37.796875 17.1875 
L 4.890625 17.1875 
L 4.890625 26.703125 
z
" id="DejaVuSans-52"/>
      </defs>
      <use xlink:href="#DejaVuSans-52"/>
     </g>
    </g>
   </g>
   <g id="xtick_14">
    <g id="line2d_17">
     <path d="M 318.192049 104.472386 
L 321.196243 105.262245 
" style="fill:none;stroke:#000000;stroke-linecap:square;stroke-width:0.8;"/>
    </g>
    <g id="text_17">
     <!-- 6 -->
     <g transform="translate(334.842992 109.897695)scale(0.1 -0.1)">
      <defs>
       <path d="M 33.015625 40.375 
Q 26.375 40.375 22.484375 35.828125 
Q 18.609375 31.296875 18.609375 23.390625 
Q 18.609375 15.53125 22.484375 10.953125 
Q 26.375 6.390625 33.015625 6.390625 
Q 39.65625 6.390625 43.53125 10.953125 
Q 47.40625 15.53125 47.40625 23.390625 
Q 47.40625 31.296875 43.53125 35.828125 
Q 39.65625 40.375 33.015625 40.375 
z
M 52.59375 71.296875 
L 52.59375 62.3125 
Q 48.875 64.0625 45.09375 64.984375 
Q 41.3125 65.921875 37.59375 65.921875 
Q 27.828125 65.921875 22.671875 59.328125 
Q 17.53125 52.734375 16.796875 39.40625 
Q 19.671875 43.65625 24.015625 45.921875 
Q 28.375 48.1875 33.59375 48.1875 
Q 44.578125 48.1875 50.953125 41.515625 
Q 57.328125 34.859375 57.328125 23.390625 
Q 57.328125 12.15625 50.6875 5.359375 
Q 44.046875 -1.421875 33.015625 -1.421875 
Q 20.359375 -1.421875 13.671875 8.265625 
Q 6.984375 17.96875 6.984375 36.375 
Q 6.984375 53.65625 15.1875 63.9375 
Q 23.390625 74.21875 37.203125 74.21875 
Q 40.921875 74.21875 44.703125 73.484375 
Q 48.484375 72.75 52.59375 71.296875 
z
" id="DejaVuSans-54"/>
      </defs>
      <use xlink:href="#DejaVuSans-54"/>
     </g>
    </g>
   </g>
  </g>
  <g id="axes_1">
   <g id="Poly3DCollection_1">
    <path clip-path="url(#p0306cfdef4)" d="M 203.700438 142.115361 
L 188.960665 154.585305 
L 203.892609 142.018065 
z
" style="fill:#9e0142;"/>
    <path clip-path="url(#p0306cfdef4)" d="M 189.393324 154.229262 
L 204.13166 141.770701 
L 203.892609 142.018065 
z
" style="fill:#a00343;"/>
    <path clip-path="url(#p0306cfdef4)" d="M 191.330275 153.224999 
L 206.054568 140.455992 
L 204.13166 141.770701 
z
" style="fill:#ab0f45;"/>
    <path clip-path="url(#p0306cfdef4)" d="M 193.777449 153.094131 
L 208.472772 139.453322 
L 206.054568 140.455992 
z
" style="fill:#b61b48;"/>
    <path clip-path="url(#p0306cfdef4)" d="M 188.960665 154.585305 
L 189.153795 154.477861 
L 203.892609 142.018065 
z
" style="fill:#9e0142;"/>
    <path clip-path="url(#p0306cfdef4)" d="M 203.892609 142.018065 
L 189.153795 154.477861 
L 189.393324 154.229262 
z
" style="fill:#a00343;"/>
    <path clip-path="url(#p0306cfdef4)" d="M 198.678219 151.607002 
L 213.334156 136.980647 
L 208.472772 139.453322 
z
" style="fill:#cd364d;"/>
    <path clip-path="url(#p0306cfdef4)" d="M 204.13166 141.770701 
L 189.393324 154.229262 
L 191.330275 153.224999 
z
" style="fill:#a40844;"/>
    <path clip-path="url(#p0306cfdef4)" d="M 206.054568 140.455992 
L 191.330275 153.224999 
L 193.777449 153.094131 
z
" style="fill:#b11747;"/>
    <path clip-path="url(#p0306cfdef4)" d="M 208.472772 139.453322 
L 193.777449 153.094131 
L 198.678219 151.607002 
z
" style="fill:#c1274a;"/>
    <path clip-path="url(#p0306cfdef4)" d="M 213.591279 146.518406 
L 228.15805 127.735033 
L 213.334156 136.980647 
z
" style="fill:#f67a49;"/>
    <path clip-path="url(#p0306cfdef4)" d="M 213.334156 136.980647 
L 198.678219 151.607002 
L 213.591279 146.518406 
z
" style="fill:#e2514a;"/>
    <path clip-path="url(#p0306cfdef4)" d="M 173.868856 167.581759 
L 189.153795 154.477861 
L 188.960665 154.585305 
z
" style="fill:#9e0142;"/>
    <path clip-path="url(#p0306cfdef4)" d="M 189.393324 154.229262 
L 189.153795 154.477861 
L 173.868856 167.581759 
z
" style="fill:#9e0142;"/>
    <path clip-path="url(#p0306cfdef4)" d="M 191.330275 153.224999 
L 189.393324 154.229262 
L 174.111075 167.42667 
z
" style="fill:#a40844;"/>
    <path clip-path="url(#p0306cfdef4)" d="M 193.777449 153.094131 
L 191.330275 153.224999 
L 176.076761 167.183795 
z
" style="fill:#ad1246;"/>
    <path clip-path="url(#p0306cfdef4)" d="M 198.678219 151.607002 
L 193.777449 153.094131 
L 178.541781 166.913585 
z
" style="fill:#ba2049;"/>
    <path clip-path="url(#p0306cfdef4)" d="M 173.868856 167.581759 
L 188.960665 154.585305 
L 173.670493 167.520892 
z
" style="fill:#9e0142;"/>
    <path clip-path="url(#p0306cfdef4)" d="M 173.868856 167.581759 
L 174.111075 167.42667 
L 189.393324 154.229262 
z
" style="fill:#9e0142;"/>
    <path clip-path="url(#p0306cfdef4)" d="M 174.111075 167.42667 
L 176.076761 167.183795 
L 191.330275 153.224999 
z
" style="fill:#a70b44;"/>
    <path clip-path="url(#p0306cfdef4)" d="M 176.076761 167.183795 
L 178.541781 166.913585 
L 193.777449 153.094131 
z
" style="fill:#ad1246;"/>
    <path clip-path="url(#p0306cfdef4)" d="M 213.591279 146.518406 
L 198.678219 151.607002 
L 183.495712 166.381148 
z
" style="fill:#dc484c;"/>
    <path clip-path="url(#p0306cfdef4)" d="M 178.541781 166.913585 
L 183.495712 166.381148 
L 198.678219 151.607002 
z
" style="fill:#be254a;"/>
    <path clip-path="url(#p0306cfdef4)" d="M 239.211869 136.381214 
L 228.15805 127.735033 
L 213.591279 146.518406 
z
" style="fill:#fdc171;"/>
    <path clip-path="url(#p0306cfdef4)" d="M 253.687824 115.488474 
L 228.15805 127.735033 
L 239.211869 136.381214 
z
" style="fill:#fff3ac;"/>
    <path clip-path="url(#p0306cfdef4)" d="M 173.670493 167.520892 
L 157.798506 180.948697 
L 173.868856 167.581759 
z
" style="fill:#9e0142;"/>
    <path clip-path="url(#p0306cfdef4)" d="M 158.244939 180.931378 
L 174.111075 167.42667 
L 173.868856 167.581759 
z
" style="fill:#9e0142;"/>
    <path clip-path="url(#p0306cfdef4)" d="M 160.242924 181.191509 
L 176.076761 167.183795 
L 174.111075 167.42667 
z
" style="fill:#a20643;"/>
    <path clip-path="url(#p0306cfdef4)" d="M 183.495712 166.381148 
L 198.54784 164.64562 
L 213.591279 146.518406 
z
" style="fill:#e3534a;"/>
    <path clip-path="url(#p0306cfdef4)" d="M 162.744349 181.450829 
L 178.541781 166.913585 
L 176.076761 167.183795 
z
" style="fill:#a90d45;"/>
    <path clip-path="url(#p0306cfdef4)" d="M 167.770225 182.057096 
L 183.495712 166.381148 
L 178.541781 166.913585 
z
" style="fill:#b41947;"/>
    <path clip-path="url(#p0306cfdef4)" d="M 213.591279 146.518406 
L 198.54784 164.64562 
L 239.211869 136.381214 
z
" style="fill:#fba35c;"/>
    <path clip-path="url(#p0306cfdef4)" d="M 157.798506 180.948697 
L 157.997126 180.948091 
L 173.868856 167.581759 
z
" style="fill:#9e0142;"/>
    <path clip-path="url(#p0306cfdef4)" d="M 173.868856 167.581759 
L 157.997126 180.948091 
L 158.244939 180.931378 
z
" style="fill:#9e0142;"/>
    <path clip-path="url(#p0306cfdef4)" d="M 174.111075 167.42667 
L 158.244939 180.931378 
L 160.242924 181.191509 
z
" style="fill:#a00343;"/>
    <path clip-path="url(#p0306cfdef4)" d="M 176.076761 167.183795 
L 160.242924 181.191509 
L 162.744349 181.450829 
z
" style="fill:#a40844;"/>
    <path clip-path="url(#p0306cfdef4)" d="M 178.541781 166.913585 
L 162.744349 181.450829 
L 167.770225 182.057096 
z
" style="fill:#ab0f45;"/>
    <path clip-path="url(#p0306cfdef4)" d="M 239.211869 136.381214 
L 280.323828 100.997675 
L 253.687824 115.488474 
z
" style="fill:#c6e89f;"/>
    <path clip-path="url(#p0306cfdef4)" d="M 183.005432 183.572758 
L 198.54784 164.64562 
L 183.495712 166.381148 
z
" style="fill:#d23a4e;"/>
    <path clip-path="url(#p0306cfdef4)" d="M 183.495712 166.381148 
L 167.770225 182.057096 
L 183.005432 183.572758 
z
" style="fill:#bc2249;"/>
    <path clip-path="url(#p0306cfdef4)" d="M 239.211869 136.381214 
L 198.54784 164.64562 
L 224.297075 160.885482 
z
" style="fill:#fdb567;"/>
    <path clip-path="url(#p0306cfdef4)" d="M 148.184255 189.318143 
L 157.997126 180.948091 
L 157.798506 180.948697 
z
" style="fill:#9e0142;"/>
    <path clip-path="url(#p0306cfdef4)" d="M 158.244939 180.931378 
L 157.997126 180.948091 
L 148.184255 189.318143 
z
" style="fill:#9e0142;"/>
    <path clip-path="url(#p0306cfdef4)" d="M 160.242924 181.191509 
L 158.244939 180.931378 
L 148.43704 189.399001 
z
" style="fill:#9e0142;"/>
    <path clip-path="url(#p0306cfdef4)" d="M 162.744349 181.450829 
L 160.242924 181.191509 
L 150.453364 189.832101 
z
" style="fill:#a20643;"/>
    <path clip-path="url(#p0306cfdef4)" d="M 167.770225 182.057096 
L 162.744349 181.450829 
L 152.978664 190.353227 
z
" style="fill:#a70b44;"/>
    <path clip-path="url(#p0306cfdef4)" d="M 157.798506 180.948697 
L 147.982068 189.253468 
L 148.184255 189.318143 
z
" style="fill:#9e0142;"/>
    <path clip-path="url(#p0306cfdef4)" d="M 148.184255 189.318143 
L 148.43704 189.399001 
L 158.244939 180.931378 
z
" style="fill:#9e0142;"/>
    <path clip-path="url(#p0306cfdef4)" d="M 265.762823 130.720968 
L 280.323828 100.997675 
L 239.211869 136.381214 
z
" style="fill:#b8e2a1;"/>
    <path clip-path="url(#p0306cfdef4)" d="M 148.43704 189.399001 
L 150.453364 189.832101 
L 160.242924 181.191509 
z
" style="fill:#9e0142;"/>
    <path clip-path="url(#p0306cfdef4)" d="M 150.453364 189.832101 
L 152.978664 190.353227 
L 162.744349 181.450829 
z
" style="fill:#a20643;"/>
    <path clip-path="url(#p0306cfdef4)" d="M 158.055583 191.614489 
L 167.770225 182.057096 
L 152.978664 190.353227 
z
" style="fill:#a70b44;"/>
    <path clip-path="url(#p0306cfdef4)" d="M 144.86202 192.129686 
L 148.184255 189.318143 
L 147.982068 189.253468 
z
" style="fill:#9e0142;"/>
    <path clip-path="url(#p0306cfdef4)" d="M 148.43704 189.399001 
L 148.184255 189.318143 
L 144.86202 192.129686 
z
" style="fill:#9e0142;"/>
    <path clip-path="url(#p0306cfdef4)" d="M 183.005432 183.572758 
L 208.969201 186.079465 
L 198.54784 164.64562 
z
" style="fill:#dd4a4c;"/>
    <path clip-path="url(#p0306cfdef4)" d="M 198.54784 164.64562 
L 208.969201 186.079465 
L 224.297075 160.885482 
z
" style="fill:#f57245;"/>
    <path clip-path="url(#p0306cfdef4)" d="M 150.453364 189.832101 
L 148.43704 189.399001 
L 145.115411 192.211171 
z
" style="fill:#9e0142;"/>
    <path clip-path="url(#p0306cfdef4)" d="M 147.982068 189.253468 
L 144.659349 192.064511 
L 144.86202 192.129686 
z
" style="fill:#9e0142;"/>
    <path clip-path="url(#p0306cfdef4)" d="M 144.86202 192.129686 
L 145.115411 192.211171 
L 148.43704 189.399001 
z
" style="fill:#9e0142;"/>
    <path clip-path="url(#p0306cfdef4)" d="M 167.770225 182.057096 
L 173.431078 195.294595 
L 183.005432 183.572758 
z
" style="fill:#b61b48;"/>
    <path clip-path="url(#p0306cfdef4)" d="M 152.978664 190.353227 
L 150.453364 189.832101 
L 147.140391 192.756241 
z
" style="fill:#a00343;"/>
    <path clip-path="url(#p0306cfdef4)" d="M 224.297075 160.885482 
L 250.894281 159.833986 
L 239.211869 136.381214 
z
" style="fill:#fee491;"/>
    <path clip-path="url(#p0306cfdef4)" d="M 145.115411 192.211171 
L 147.140391 192.756241 
L 150.453364 189.832101 
z
" style="fill:#9e0142;"/>
    <path clip-path="url(#p0306cfdef4)" d="M 158.055583 191.614489 
L 173.431078 195.294595 
L 167.770225 182.057096 
z
" style="fill:#ab0f45;"/>
    <path clip-path="url(#p0306cfdef4)" d="M 149.679652 193.508945 
L 152.978664 190.353227 
L 147.140391 192.756241 
z
" style="fill:#9e0142;"/>
    <path clip-path="url(#p0306cfdef4)" d="M 143.191256 193.543622 
L 144.86202 192.129686 
L 144.659349 192.064511 
z
" style="fill:#9e0142;"/>
    <path clip-path="url(#p0306cfdef4)" d="M 239.211869 136.381214 
L 250.894281 159.833986 
L 265.762823 130.720968 
z
" style="fill:#f9fcb5;"/>
    <path clip-path="url(#p0306cfdef4)" d="M 145.115411 192.211171 
L 144.86202 192.129686 
L 143.191256 193.543622 
z
" style="fill:#9e0142;"/>
    <path clip-path="url(#p0306cfdef4)" d="M 147.140391 192.756241 
L 145.115411 192.211171 
L 143.44495 193.625423 
z
" style="fill:#9e0142;"/>
    <path clip-path="url(#p0306cfdef4)" d="M 144.659349 192.064511 
L 142.988341 193.478195 
L 143.191256 193.543622 
z
" style="fill:#9e0142;"/>
    <path clip-path="url(#p0306cfdef4)" d="M 158.055583 191.614489 
L 152.978664 190.353227 
L 154.770826 194.879514 
z
" style="fill:#a20643;"/>
    <path clip-path="url(#p0306cfdef4)" d="M 143.191256 193.543622 
L 143.44495 193.625423 
L 145.115411 192.211171 
z
" style="fill:#9e0142;"/>
    <path clip-path="url(#p0306cfdef4)" d="M 154.770826 194.879514 
L 152.978664 190.353227 
L 149.679652 193.508945 
z
" style="fill:#a00343;"/>
    <path clip-path="url(#p0306cfdef4)" d="M 145.470984 194.14061 
L 147.140391 192.756241 
L 143.44495 193.625423 
z
" style="fill:#9e0142;"/>
    <path clip-path="url(#p0306cfdef4)" d="M 142.988341 193.478195 
L 141.64687 194.613088 
L 143.191256 193.543622 
z
" style="fill:#9e0142;"/>
    <path clip-path="url(#p0306cfdef4)" d="M 149.679652 193.508945 
L 147.140391 192.756241 
L 148.018682 195.036369 
z
" style="fill:#9e0142;"/>
    <path clip-path="url(#p0306cfdef4)" d="M 142.103917 194.760774 
L 143.44495 193.625423 
L 143.191256 193.543622 
z
" style="fill:#9e0142;"/>
    <path clip-path="url(#p0306cfdef4)" d="M 148.018682 195.036369 
L 147.140391 192.756241 
L 145.470984 194.14061 
z
" style="fill:#9e0142;"/>
    <path clip-path="url(#p0306cfdef4)" d="M 141.64687 194.613088 
L 141.849979 194.678719 
L 143.191256 193.543622 
z
" style="fill:#9e0142;"/>
    <path clip-path="url(#p0306cfdef4)" d="M 143.191256 193.543622 
L 141.849979 194.678719 
L 142.103917 194.760774 
z
" style="fill:#9e0142;"/>
    <path clip-path="url(#p0306cfdef4)" d="M 145.470984 194.14061 
L 143.44495 193.625423 
L 144.137469 195.417874 
z
" style="fill:#9e0142;"/>
    <path clip-path="url(#p0306cfdef4)" d="M 144.137469 195.417874 
L 143.44495 193.625423 
L 142.103917 194.760774 
z
" style="fill:#9e0142;"/>
    <path clip-path="url(#p0306cfdef4)" d="M 141.682027 194.820854 
L 141.849979 194.678719 
L 141.64687 194.613088 
z
" style="fill:#9e0142;"/>
    <path clip-path="url(#p0306cfdef4)" d="M 141.64687 194.613088 
L 141.478893 194.755198 
L 141.682027 194.820854 
z
" style="fill:#9e0142;"/>
    <path clip-path="url(#p0306cfdef4)" d="M 142.103917 194.760774 
L 141.849979 194.678719 
L 141.682027 194.820854 
z
" style="fill:#9e0142;"/>
    <path clip-path="url(#p0306cfdef4)" d="M 148.018682 195.036369 
L 154.770826 194.879514 
L 149.679652 193.508945 
z
" style="fill:#9e0142;"/>
    <path clip-path="url(#p0306cfdef4)" d="M 141.682027 194.820854 
L 141.935995 194.90294 
L 142.103917 194.760774 
z
" style="fill:#9e0142;"/>
    <path clip-path="url(#p0306cfdef4)" d="M 141.547618 194.934601 
L 141.682027 194.820854 
L 141.478893 194.755198 
z
" style="fill:#9e0142;"/>
    <path clip-path="url(#p0306cfdef4)" d="M 141.547618 194.934601 
L 141.478893 194.755198 
L 141.344465 194.868925 
z
" style="fill:#9e0142;"/>
    <path clip-path="url(#p0306cfdef4)" d="M 141.935995 194.90294 
L 141.682027 194.820854 
L 141.547618 194.934601 
z
" style="fill:#9e0142;"/>
    <path clip-path="url(#p0306cfdef4)" d="M 141.801611 195.016713 
L 141.935995 194.90294 
L 141.547618 194.934601 
z
" style="fill:#9e0142;"/>
    <path clip-path="url(#p0306cfdef4)" d="M 144.137469 195.417874 
L 148.018682 195.036369 
L 145.470984 194.14061 
z
" style="fill:#9e0142;"/>
    <path clip-path="url(#p0306cfdef4)" d="M 141.935995 194.90294 
L 144.137469 195.417874 
L 142.103917 194.760774 
z
" style="fill:#9e0142;"/>
    <path clip-path="url(#p0306cfdef4)" d="M 141.935995 194.90294 
L 141.801611 195.016713 
L 143.835603 195.674273 
z
" style="fill:#9e0142;"/>
    <path clip-path="url(#p0306cfdef4)" d="M 141.935995 194.90294 
L 143.969792 195.560296 
L 144.137469 195.417874 
z
" style="fill:#9e0142;"/>
    <path clip-path="url(#p0306cfdef4)" d="M 143.835603 195.674273 
L 143.969792 195.560296 
L 141.935995 194.90294 
z
" style="fill:#9e0142;"/>
    <path clip-path="url(#p0306cfdef4)" d="M 154.770826 194.879514 
L 173.431078 195.294595 
L 158.055583 191.614489 
z
" style="fill:#a70b44;"/>
    <path clip-path="url(#p0306cfdef4)" d="M 144.137469 195.417874 
L 146.684543 196.240908 
L 148.018682 195.036369 
z
" style="fill:#9e0142;"/>
    <path clip-path="url(#p0306cfdef4)" d="M 146.684543 196.240908 
L 144.137469 195.417874 
L 143.969792 195.560296 
z
" style="fill:#9e0142;"/>
    <path clip-path="url(#p0306cfdef4)" d="M 148.018682 195.036369 
L 153.119015 196.510233 
L 154.770826 194.879514 
z
" style="fill:#9e0142;"/>
    <path clip-path="url(#p0306cfdef4)" d="M 143.969792 195.560296 
L 143.835603 195.674273 
L 146.383229 196.497883 
z
" style="fill:#9e0142;"/>
    <path clip-path="url(#p0306cfdef4)" d="M 143.969792 195.560296 
L 146.517172 196.38365 
L 146.684543 196.240908 
z
" style="fill:#9e0142;"/>
    <path clip-path="url(#p0306cfdef4)" d="M 153.119015 196.510233 
L 148.018682 195.036369 
L 146.684543 196.240908 
z
" style="fill:#9e0142;"/>
    <path clip-path="url(#p0306cfdef4)" d="M 146.383229 196.497883 
L 146.517172 196.38365 
L 143.969792 195.560296 
z
" style="fill:#9e0142;"/>
    <path clip-path="url(#p0306cfdef4)" d="M 265.762823 130.720968 
L 293.40407 120.815415 
L 280.323828 100.997675 
z
" style="fill:#5cb7aa;"/>
    <path clip-path="url(#p0306cfdef4)" d="M 151.792706 197.806185 
L 146.684543 196.240908 
L 146.517172 196.38365 
z
" style="fill:#9e0142;"/>
    <path clip-path="url(#p0306cfdef4)" d="M 146.684543 196.240908 
L 151.792706 197.806185 
L 153.119015 196.510233 
z
" style="fill:#9e0142;"/>
    <path clip-path="url(#p0306cfdef4)" d="M 146.517172 196.38365 
L 146.383229 196.497883 
L 151.492492 198.064297 
z
" style="fill:#9e0142;"/>
    <path clip-path="url(#p0306cfdef4)" d="M 146.517172 196.38365 
L 151.62912 198.035913 
L 151.792706 197.806185 
z
" style="fill:#9e0142;"/>
    <path clip-path="url(#p0306cfdef4)" d="M 151.492492 198.064297 
L 151.62912 198.035913 
L 146.517172 196.38365 
z
" style="fill:#9e0142;"/>
    <path clip-path="url(#p0306cfdef4)" d="M 170.195076 199.193012 
L 154.770826 194.879514 
L 153.119015 196.510233 
z
" style="fill:#a20643;"/>
    <path clip-path="url(#p0306cfdef4)" d="M 154.770826 194.879514 
L 170.195076 199.193012 
L 173.431078 195.294595 
z
" style="fill:#a70b44;"/>
    <path clip-path="url(#p0306cfdef4)" d="M 224.297075 160.885482 
L 208.969201 186.079465 
L 250.894281 159.833986 
z
" style="fill:#fdaf62;"/>
    <path clip-path="url(#p0306cfdef4)" d="M 183.005432 183.572758 
L 173.431078 195.294595 
L 199.564467 201.328371 
z
" style="fill:#bc2249;"/>
    <path clip-path="url(#p0306cfdef4)" d="M 168.56807 201.125062 
L 153.119015 196.510233 
L 151.792706 197.806185 
z
" style="fill:#a00343;"/>
    <path clip-path="url(#p0306cfdef4)" d="M 280.323828 100.997675 
L 293.40407 120.815415 
L 308.15998 85.270524 
z
" style="fill:#5e4fa2;"/>
    <path clip-path="url(#p0306cfdef4)" d="M 167.265899 202.79471 
L 151.792706 197.806185 
L 151.62912 198.035913 
z
" style="fill:#9e0142;"/>
    <path clip-path="url(#p0306cfdef4)" d="M 151.62912 198.035913 
L 151.492492 198.064297 
L 166.971943 203.15391 
z
" style="fill:#9e0142;"/>
    <path clip-path="url(#p0306cfdef4)" d="M 153.119015 196.510233 
L 168.56807 201.125062 
L 170.195076 199.193012 
z
" style="fill:#a20643;"/>
    <path clip-path="url(#p0306cfdef4)" d="M 199.564467 201.328371 
L 208.969201 186.079465 
L 183.005432 183.572758 
z
" style="fill:#d43d4f;"/>
    <path clip-path="url(#p0306cfdef4)" d="M 151.792706 197.806185 
L 167.265899 202.79471 
L 168.56807 201.125062 
z
" style="fill:#9e0142;"/>
    <path clip-path="url(#p0306cfdef4)" d="M 151.62912 198.035913 
L 167.100726 202.929195 
L 167.265899 202.79471 
z
" style="fill:#9e0142;"/>
    <path clip-path="url(#p0306cfdef4)" d="M 166.971943 203.15391 
L 167.100726 202.929195 
L 151.62912 198.035913 
z
" style="fill:#9e0142;"/>
    <path clip-path="url(#p0306cfdef4)" d="M 250.894281 159.833986 
L 293.40407 120.815415 
L 265.762823 130.720968 
z
" style="fill:#bfe5a0;"/>
    <path clip-path="url(#p0306cfdef4)" d="M 173.431078 195.294595 
L 170.195076 199.193012 
L 196.392867 206.38893 
z
" style="fill:#ab0f45;"/>
    <path clip-path="url(#p0306cfdef4)" d="M 170.195076 199.193012 
L 168.56807 201.125062 
L 194.80243 209.07753 
z
" style="fill:#a40844;"/>
    <path clip-path="url(#p0306cfdef4)" d="M 250.894281 159.833986 
L 208.969201 186.079465 
L 235.669927 189.905571 
z
" style="fill:#fa9b58;"/>
    <path clip-path="url(#p0306cfdef4)" d="M 196.392867 206.38893 
L 199.564467 201.328371 
L 173.431078 195.294595 
z
" style="fill:#b41947;"/>
    <path clip-path="url(#p0306cfdef4)" d="M 168.56807 201.125062 
L 167.265899 202.79471 
L 193.525786 211.159464 
z
" style="fill:#a00343;"/>
    <path clip-path="url(#p0306cfdef4)" d="M 167.265899 202.79471 
L 167.100726 202.929195 
L 193.364238 211.308123 
z
" style="fill:#9e0142;"/>
    <path clip-path="url(#p0306cfdef4)" d="M 193.364238 211.308123 
L 167.100726 202.929195 
L 166.971943 203.15391 
z
" style="fill:#9e0142;"/>
    <path clip-path="url(#p0306cfdef4)" d="M 235.669927 189.905571 
L 208.969201 186.079465 
L 199.564467 201.328371 
z
" style="fill:#e3534a;"/>
    <path clip-path="url(#p0306cfdef4)" d="M 194.80243 209.07753 
L 196.392867 206.38893 
L 170.195076 199.193012 
z
" style="fill:#a90d45;"/>
    <path clip-path="url(#p0306cfdef4)" d="M 193.525786 211.159464 
L 194.80243 209.07753 
L 168.56807 201.125062 
z
" style="fill:#a20643;"/>
    <path clip-path="url(#p0306cfdef4)" d="M 193.364238 211.308123 
L 193.525786 211.159464 
L 167.265899 202.79471 
z
" style="fill:#9e0142;"/>
    <path clip-path="url(#p0306cfdef4)" d="M 278.386179 157.14956 
L 293.40407 120.815415 
L 250.894281 159.833986 
z
" style="fill:#cdeb9d;"/>
    <path clip-path="url(#p0306cfdef4)" d="M 193.364238 211.308123 
L 166.971943 203.15391 
L 193.236682 211.536287 
z
" style="fill:#9e0142;"/>
    <path clip-path="url(#p0306cfdef4)" d="M 226.362204 208.022343 
L 199.564467 201.328371 
L 196.392867 206.38893 
z
" style="fill:#be254a;"/>
    <path clip-path="url(#p0306cfdef4)" d="M 199.564467 201.328371 
L 226.362204 208.022343 
L 235.669927 189.905571 
z
" style="fill:#dc484c;"/>
    <path clip-path="url(#p0306cfdef4)" d="M 235.669927 189.905571 
L 263.147625 192.01643 
L 250.894281 159.833986 
z
" style="fill:#fdb96a;"/>
    <path clip-path="url(#p0306cfdef4)" d="M 223.2296 214.222534 
L 196.392867 206.38893 
L 194.80243 209.07753 
z
" style="fill:#ad1246;"/>
    <path clip-path="url(#p0306cfdef4)" d="M 250.894281 159.833986 
L 263.147625 192.01643 
L 278.386179 157.14956 
z
" style="fill:#feeda1;"/>
    <path clip-path="url(#p0306cfdef4)" d="M 221.657652 217.284175 
L 194.80243 209.07753 
L 193.525786 211.159464 
z
" style="fill:#a40844;"/>
    <path clip-path="url(#p0306cfdef4)" d="M 220.397283 219.708048 
L 193.525786 211.159464 
L 193.364238 211.308123 
z
" style="fill:#9e0142;"/>
    <path clip-path="url(#p0306cfdef4)" d="M 193.236682 211.536287 
L 220.113292 220.223839 
L 193.364238 211.308123 
z
" style="fill:#9e0142;"/>
    <path clip-path="url(#p0306cfdef4)" d="M 196.392867 206.38893 
L 223.2296 214.222534 
L 226.362204 208.022343 
z
" style="fill:#bc2249;"/>
    <path clip-path="url(#p0306cfdef4)" d="M 194.80243 209.07753 
L 221.657652 217.284175 
L 223.2296 214.222534 
z
" style="fill:#ab0f45;"/>
    <path clip-path="url(#p0306cfdef4)" d="M 193.525786 211.159464 
L 220.397283 219.708048 
L 221.657652 217.284175 
z
" style="fill:#a20643;"/>
    <path clip-path="url(#p0306cfdef4)" d="M 193.364238 211.308123 
L 220.239499 219.981128 
L 220.397283 219.708048 
z
" style="fill:#9e0142;"/>
    <path clip-path="url(#p0306cfdef4)" d="M 220.113292 220.223839 
L 220.239499 219.981128 
L 193.364238 211.308123 
z
" style="fill:#9e0142;"/>
    <path clip-path="url(#p0306cfdef4)" d="M 235.669927 189.905571 
L 226.362204 208.022343 
L 253.843523 214.396176 
z
" style="fill:#e2514a;"/>
    <path clip-path="url(#p0306cfdef4)" d="M 253.843523 214.396176 
L 263.147625 192.01643 
L 235.669927 189.905571 
z
" style="fill:#f57547;"/>
    <path clip-path="url(#p0306cfdef4)" d="M 226.362204 208.022343 
L 223.2296 214.222534 
L 250.718847 222.00161 
z
" style="fill:#c1274a;"/>
    <path clip-path="url(#p0306cfdef4)" d="M 223.2296 214.222534 
L 221.657652 217.284175 
L 249.15689 225.465072 
z
" style="fill:#af1446;"/>
    <path clip-path="url(#p0306cfdef4)" d="M 221.657652 217.284175 
L 220.397283 219.708048 
L 247.902077 228.480341 
z
" style="fill:#a20643;"/>
    <path clip-path="url(#p0306cfdef4)" d="M 220.397283 219.708048 
L 220.239499 219.981128 
L 247.747629 228.647099 
z
" style="fill:#a00343;"/>
    <path clip-path="url(#p0306cfdef4)" d="M 247.747629 228.647099 
L 220.239499 219.981128 
L 220.113292 220.223839 
z
" style="fill:#9e0142;"/>
    <path clip-path="url(#p0306cfdef4)" d="M 250.718847 222.00161 
L 253.843523 214.396176 
L 226.362204 208.022343 
z
" style="fill:#cd364d;"/>
    <path clip-path="url(#p0306cfdef4)" d="M 249.15689 225.465072 
L 250.718847 222.00161 
L 223.2296 214.222534 
z
" style="fill:#b61b48;"/>
    <path clip-path="url(#p0306cfdef4)" d="M 247.902077 228.480341 
L 249.15689 225.465072 
L 221.657652 217.284175 
z
" style="fill:#a90d45;"/>
    <path clip-path="url(#p0306cfdef4)" d="M 247.747629 228.647099 
L 247.902077 228.480341 
L 220.397283 219.708048 
z
" style="fill:#a00343;"/>
    <path clip-path="url(#p0306cfdef4)" d="M 247.747629 228.647099 
L 220.113292 220.223839 
L 247.621351 229.004317 
z
" style="fill:#9e0142;"/>
   </g>
   <g id="text_18">
    <!-- Effectiveness of dynamic approach -->
    <g transform="translate(116.155313 28.56)scale(0.12 -0.12)">
     <defs>
      <path d="M 9.8125 72.90625 
L 55.90625 72.90625 
L 55.90625 64.59375 
L 19.671875 64.59375 
L 19.671875 43.015625 
L 54.390625 43.015625 
L 54.390625 34.71875 
L 19.671875 34.71875 
L 19.671875 8.296875 
L 56.78125 8.296875 
L 56.78125 0 
L 9.8125 0 
z
" id="DejaVuSans-69"/>
      <path d="M 37.109375 75.984375 
L 37.109375 68.5 
L 28.515625 68.5 
Q 23.6875 68.5 21.796875 66.546875 
Q 19.921875 64.59375 19.921875 59.515625 
L 19.921875 54.6875 
L 34.71875 54.6875 
L 34.71875 47.703125 
L 19.921875 47.703125 
L 19.921875 0 
L 10.890625 0 
L 10.890625 47.703125 
L 2.296875 47.703125 
L 2.296875 54.6875 
L 10.890625 54.6875 
L 10.890625 58.5 
Q 10.890625 67.625 15.140625 71.796875 
Q 19.390625 75.984375 28.609375 75.984375 
z
" id="DejaVuSans-102"/>
      <path d="M 48.78125 52.59375 
L 48.78125 44.1875 
Q 44.96875 46.296875 41.140625 47.34375 
Q 37.3125 48.390625 33.40625 48.390625 
Q 24.65625 48.390625 19.8125 42.84375 
Q 14.984375 37.3125 14.984375 27.296875 
Q 14.984375 17.28125 19.8125 11.734375 
Q 24.65625 6.203125 33.40625 6.203125 
Q 37.3125 6.203125 41.140625 7.25 
Q 44.96875 8.296875 48.78125 10.40625 
L 48.78125 2.09375 
Q 45.015625 0.34375 40.984375 -0.53125 
Q 36.96875 -1.421875 32.421875 -1.421875 
Q 20.0625 -1.421875 12.78125 6.34375 
Q 5.515625 14.109375 5.515625 27.296875 
Q 5.515625 40.671875 12.859375 48.328125 
Q 20.21875 56 33.015625 56 
Q 37.15625 56 41.109375 55.140625 
Q 45.0625 54.296875 48.78125 52.59375 
z
" id="DejaVuSans-99"/>
      <path d="M 2.984375 54.6875 
L 12.5 54.6875 
L 29.59375 8.796875 
L 46.6875 54.6875 
L 56.203125 54.6875 
L 35.6875 0 
L 23.484375 0 
z
" id="DejaVuSans-118"/>
      <path d="M 54.890625 33.015625 
L 54.890625 0 
L 45.90625 0 
L 45.90625 32.71875 
Q 45.90625 40.484375 42.875 44.328125 
Q 39.84375 48.1875 33.796875 48.1875 
Q 26.515625 48.1875 22.3125 43.546875 
Q 18.109375 38.921875 18.109375 30.90625 
L 18.109375 0 
L 9.078125 0 
L 9.078125 54.6875 
L 18.109375 54.6875 
L 18.109375 46.1875 
Q 21.34375 51.125 25.703125 53.5625 
Q 30.078125 56 35.796875 56 
Q 45.21875 56 50.046875 50.171875 
Q 54.890625 44.34375 54.890625 33.015625 
z
" id="DejaVuSans-110"/>
      <path d="M 30.609375 48.390625 
Q 23.390625 48.390625 19.1875 42.75 
Q 14.984375 37.109375 14.984375 27.296875 
Q 14.984375 17.484375 19.15625 11.84375 
Q 23.34375 6.203125 30.609375 6.203125 
Q 37.796875 6.203125 41.984375 11.859375 
Q 46.1875 17.53125 46.1875 27.296875 
Q 46.1875 37.015625 41.984375 42.703125 
Q 37.796875 48.390625 30.609375 48.390625 
z
M 30.609375 56 
Q 42.328125 56 49.015625 48.375 
Q 55.71875 40.765625 55.71875 27.296875 
Q 55.71875 13.875 49.015625 6.21875 
Q 42.328125 -1.421875 30.609375 -1.421875 
Q 18.84375 -1.421875 12.171875 6.21875 
Q 5.515625 13.875 5.515625 27.296875 
Q 5.515625 40.765625 12.171875 48.375 
Q 18.84375 56 30.609375 56 
z
" id="DejaVuSans-111"/>
      <path d="M 45.40625 46.390625 
L 45.40625 75.984375 
L 54.390625 75.984375 
L 54.390625 0 
L 45.40625 0 
L 45.40625 8.203125 
Q 42.578125 3.328125 38.25 0.953125 
Q 33.9375 -1.421875 27.875 -1.421875 
Q 17.96875 -1.421875 11.734375 6.484375 
Q 5.515625 14.40625 5.515625 27.296875 
Q 5.515625 40.1875 11.734375 48.09375 
Q 17.96875 56 27.875 56 
Q 33.9375 56 38.25 53.625 
Q 42.578125 51.265625 45.40625 46.390625 
z
M 14.796875 27.296875 
Q 14.796875 17.390625 18.875 11.75 
Q 22.953125 6.109375 30.078125 6.109375 
Q 37.203125 6.109375 41.296875 11.75 
Q 45.40625 17.390625 45.40625 27.296875 
Q 45.40625 37.203125 41.296875 42.84375 
Q 37.203125 48.484375 30.078125 48.484375 
Q 22.953125 48.484375 18.875 42.84375 
Q 14.796875 37.203125 14.796875 27.296875 
z
" id="DejaVuSans-100"/>
      <path d="M 32.171875 -5.078125 
Q 28.375 -14.84375 24.75 -17.8125 
Q 21.140625 -20.796875 15.09375 -20.796875 
L 7.90625 -20.796875 
L 7.90625 -13.28125 
L 13.1875 -13.28125 
Q 16.890625 -13.28125 18.9375 -11.515625 
Q 21 -9.765625 23.484375 -3.21875 
L 25.09375 0.875 
L 2.984375 54.6875 
L 12.5 54.6875 
L 29.59375 11.921875 
L 46.6875 54.6875 
L 56.203125 54.6875 
z
" id="DejaVuSans-121"/>
      <path d="M 34.28125 27.484375 
Q 23.390625 27.484375 19.1875 25 
Q 14.984375 22.515625 14.984375 16.5 
Q 14.984375 11.71875 18.140625 8.90625 
Q 21.296875 6.109375 26.703125 6.109375 
Q 34.1875 6.109375 38.703125 11.40625 
Q 43.21875 16.703125 43.21875 25.484375 
L 43.21875 27.484375 
z
M 52.203125 31.203125 
L 52.203125 0 
L 43.21875 0 
L 43.21875 8.296875 
Q 40.140625 3.328125 35.546875 0.953125 
Q 30.953125 -1.421875 24.3125 -1.421875 
Q 15.921875 -1.421875 10.953125 3.296875 
Q 6 8.015625 6 15.921875 
Q 6 25.140625 12.171875 29.828125 
Q 18.359375 34.515625 30.609375 34.515625 
L 43.21875 34.515625 
L 43.21875 35.40625 
Q 43.21875 41.609375 39.140625 45 
Q 35.0625 48.390625 27.6875 48.390625 
Q 23 48.390625 18.546875 47.265625 
Q 14.109375 46.140625 10.015625 43.890625 
L 10.015625 52.203125 
Q 14.9375 54.109375 19.578125 55.046875 
Q 24.21875 56 28.609375 56 
Q 40.484375 56 46.34375 49.84375 
Q 52.203125 43.703125 52.203125 31.203125 
z
" id="DejaVuSans-97"/>
      <path d="M 18.109375 8.203125 
L 18.109375 -20.796875 
L 9.078125 -20.796875 
L 9.078125 54.6875 
L 18.109375 54.6875 
L 18.109375 46.390625 
Q 20.953125 51.265625 25.265625 53.625 
Q 29.59375 56 35.59375 56 
Q 45.5625 56 51.78125 48.09375 
Q 58.015625 40.1875 58.015625 27.296875 
Q 58.015625 14.40625 51.78125 6.484375 
Q 45.5625 -1.421875 35.59375 -1.421875 
Q 29.59375 -1.421875 25.265625 0.953125 
Q 20.953125 3.328125 18.109375 8.203125 
z
M 48.6875 27.296875 
Q 48.6875 37.203125 44.609375 42.84375 
Q 40.53125 48.484375 33.40625 48.484375 
Q 26.265625 48.484375 22.1875 42.84375 
Q 18.109375 37.203125 18.109375 27.296875 
Q 18.109375 17.390625 22.1875 11.75 
Q 26.265625 6.109375 33.40625 6.109375 
Q 40.53125 6.109375 44.609375 11.75 
Q 48.6875 17.390625 48.6875 27.296875 
z
" id="DejaVuSans-112"/>
      <path d="M 41.109375 46.296875 
Q 39.59375 47.171875 37.8125 47.578125 
Q 36.03125 48 33.890625 48 
Q 26.265625 48 22.1875 43.046875 
Q 18.109375 38.09375 18.109375 28.8125 
L 18.109375 0 
L 9.078125 0 
L 9.078125 54.6875 
L 18.109375 54.6875 
L 18.109375 46.1875 
Q 20.953125 51.171875 25.484375 53.578125 
Q 30.03125 56 36.53125 56 
Q 37.453125 56 38.578125 55.875 
Q 39.703125 55.765625 41.0625 55.515625 
z
" id="DejaVuSans-114"/>
      <path d="M 54.890625 33.015625 
L 54.890625 0 
L 45.90625 0 
L 45.90625 32.71875 
Q 45.90625 40.484375 42.875 44.328125 
Q 39.84375 48.1875 33.796875 48.1875 
Q 26.515625 48.1875 22.3125 43.546875 
Q 18.109375 38.921875 18.109375 30.90625 
L 18.109375 0 
L 9.078125 0 
L 9.078125 75.984375 
L 18.109375 75.984375 
L 18.109375 46.1875 
Q 21.34375 51.125 25.703125 53.5625 
Q 30.078125 56 35.796875 56 
Q 45.21875 56 50.046875 50.171875 
Q 54.890625 44.34375 54.890625 33.015625 
z
" id="DejaVuSans-104"/>
     </defs>
     <use xlink:href="#DejaVuSans-69"/>
     <use x="63.183594" xlink:href="#DejaVuSans-102"/>
     <use x="98.388672" xlink:href="#DejaVuSans-102"/>
     <use x="133.59375" xlink:href="#DejaVuSans-101"/>
     <use x="195.117188" xlink:href="#DejaVuSans-99"/>
     <use x="250.097656" xlink:href="#DejaVuSans-116"/>
     <use x="289.306641" xlink:href="#DejaVuSans-105"/>
     <use x="317.089844" xlink:href="#DejaVuSans-118"/>
     <use x="376.269531" xlink:href="#DejaVuSans-101"/>
     <use x="437.792969" xlink:href="#DejaVuSans-110"/>
     <use x="501.171875" xlink:href="#DejaVuSans-101"/>
     <use x="562.695312" xlink:href="#DejaVuSans-115"/>
     <use x="614.794922" xlink:href="#DejaVuSans-115"/>
     <use x="666.894531" xlink:href="#DejaVuSans-32"/>
     <use x="698.681641" xlink:href="#DejaVuSans-111"/>
     <use x="759.863281" xlink:href="#DejaVuSans-102"/>
     <use x="795.068359" xlink:href="#DejaVuSans-32"/>
     <use x="826.855469" xlink:href="#DejaVuSans-100"/>
     <use x="890.332031" xlink:href="#DejaVuSans-121"/>
     <use x="949.511719" xlink:href="#DejaVuSans-110"/>
     <use x="1012.890625" xlink:href="#DejaVuSans-97"/>
     <use x="1074.169922" xlink:href="#DejaVuSans-109"/>
     <use x="1171.582031" xlink:href="#DejaVuSans-105"/>
     <use x="1199.365234" xlink:href="#DejaVuSans-99"/>
     <use x="1254.345703" xlink:href="#DejaVuSans-32"/>
     <use x="1286.132812" xlink:href="#DejaVuSans-97"/>
     <use x="1347.412109" xlink:href="#DejaVuSans-112"/>
     <use x="1410.888672" xlink:href="#DejaVuSans-112"/>
     <use x="1474.365234" xlink:href="#DejaVuSans-114"/>
     <use x="1513.228516" xlink:href="#DejaVuSans-111"/>
     <use x="1574.410156" xlink:href="#DejaVuSans-97"/>
     <use x="1635.689453" xlink:href="#DejaVuSans-99"/>
     <use x="1690.669922" xlink:href="#DejaVuSans-104"/>
    </g>
   </g>
  </g>
 </g>
 <defs>
  <clipPath id="p0306cfdef4">
   <rect height="217.44" width="217.44" x="112.68" y="34.56"/>
  </clipPath>
 </defs>
</svg>
